<svg t="1655838281940" class="icon" viewBox="0 0 1024 1024" version="1.1" xmlns="http://www.w3.org/2000/svg" p-id="8868" width="32" height="32">
  <path d="M0 512c0 282.763636 229.236364 512 512 512s512-229.236364 512-512S794.763636 0 512 0 0 229.236364 0 512z" fill="#F9F9F9" p-id="8869"></path>
  <path d="M649.541818 528.360727l-2.862545-2.885818-181.457455-103.68C462.336 418.909091 459.473455 418.909091 456.610909 418.909091c-8.634182 0-14.405818 5.771636-14.405818 14.405818v213.131636c0 8.657455 5.771636 14.405818 14.405818 14.405819 2.885818 0 5.748364 0 8.634182-2.885819l181.457454-103.68h2.885819c2.885818-2.885818 5.748364-5.771636 5.748363-11.52a21.992727 21.992727 0 0 0-5.748363-14.405818z m-178.548363 95.045818V456.378182l146.897454 83.525818-146.897454 83.549091z" fill="#5693FF" p-id="8870"></path>
  <path d="M523.636364 215.272727A307.549091 307.549091 0 0 0 215.272727 523.636364c0 170.938182 137.425455 308.363636 308.363637 308.363636s308.363636-137.425455 308.363636-308.363636S694.574545 215.272727 523.636364 215.272727z m0 34.909091c151.645091 0 273.454545 121.809455 273.454545 273.454546S675.281455 797.090909 523.636364 797.090909A272.64 272.64 0 0 1 250.181818 523.636364c0-151.645091 121.809455-273.454545 273.454546-273.454546z" fill="#5693FF" p-id="8871"></path>
</svg>